<?xml version="1.0" encoding="UTF-8"?>
<svg version="1.1" xmlns="http://www.w3.org/2000/svg" width="200" height="200">
<path d="M0 0 C2.35796488 0.00373627 4.71593132 0.00658034 7.07389832 0.00857544 C13.24037054 0.01616352 19.40674658 0.03576995 25.57318115 0.0579834 C31.8814565 0.07854645 38.18974758 0.0875994 44.49804688 0.09765625 C56.84639612 0.11902089 69.1946744 0.15309775 81.54296875 0.1953125 C81.63693128 14.37424649 81.70693271 28.55313132 81.75021744 42.73231411 C81.77100249 49.31782849 81.79915291 55.90313221 81.84472656 62.48852539 C81.88850972 68.8557699 81.91217397 75.22281306 81.92247772 81.59019661 C81.92981117 84.00721463 81.94412986 86.4242229 81.96588898 88.8411541 C82.23081623 119.51650078 74.9716293 144.00980043 53.27734375 166.484375 C34.95322437 184.6514305 10.46297338 193.89662191 -15.20703125 194.5078125 C-39.39627228 193.61467129 -63.33043504 185.71531251 -81.45703125 169.1953125 C-81.45703125 168.5353125 -81.45703125 167.8753125 -81.45703125 167.1953125 C-82.44703125 166.8653125 -83.43703125 166.5353125 -84.45703125 166.1953125 C-87.70081801 162.73150145 -90.55633497 158.94830017 -93.45703125 155.1953125 C-94.09511719 154.37160156 -94.73320313 153.54789063 -95.390625 152.69921875 C-110.33646466 132.42746741 -115.30010612 106.25080982 -111.63452148 81.58789062 C-108.70314821 64.38004324 -101.84756425 48.50022079 -90.45703125 35.1953125 C-89.47476563 33.99648437 -89.47476563 33.99648437 -88.47265625 32.7734375 C-65.39351952 5.65124032 -33.87610765 -0.1584746 0 0 Z " fill="#FED041" transform="translate(113.45703125,1.8046875)"/>
<path d="M0 0 C12.68091616 10.51046285 21.25389052 24.5419417 23.25097656 41.078125 C24.70219782 57.29679872 20.17676457 72.18091559 10.421875 85.16015625 C4.45613999 92.15546165 -2.37159797 98.48864621 -11 102 C-11.99 102 -12.98 102 -14 102 C-17.96 91.44 -21.92 80.88 -26 70 C-24.35 68.68 -22.7 67.36 -21 66 C-19.22464579 64.04585421 -19.22464579 64.04585421 -17.75 62 C-16.99976562 61.01 -16.99976562 61.01 -16.234375 60 C-12.65290001 54.19710381 -13.35536236 46.54160692 -14 40 C-16.27650973 33.67091044 -21.29616626 28.76788031 -27.32421875 25.890625 C-33.36933712 23.87852721 -40.52430356 23.93588676 -46.375 26.5625 C-51.52946886 29.58001198 -55.83433622 34.41278523 -58 40 C-58.87022913 49.2786768 -58.38099481 56.04120761 -53.125 63.75 C-50.92628561 66.07805053 -48.82131081 67.51097485 -46 69 C-48.36137634 76.26753688 -50.986206 83.41505702 -53.6875 90.5625 C-54.10322266 91.66658203 -54.51894531 92.77066406 -54.94726562 93.90820312 C-55.96333474 96.6060418 -56.98094405 99.30328845 -58 102 C-68.2262909 100.1883145 -76.84249023 92.7593209 -82.8046875 84.5 C-92.83446717 69.34771483 -97.7211411 53.57975031 -94.3125 35.31640625 C-90.98286618 22.64992426 -85.20300776 13.23564254 -76 4 C-75.45859375 3.43539062 -74.9171875 2.87078125 -74.359375 2.2890625 C-54.09846993 -17.05089234 -21.6732179 -16.0870223 0 0 Z " fill="#2ECC71" transform="translate(136,45)"/>
<path d="M0 0 C10.97869 8.80686203 18.74430227 19.45295774 23.34082031 32.77929688 C23.70691406 33.8234375 24.07300781 34.86757812 24.45019531 35.94335938 C27.38937945 48.60247702 26.70465114 63.93748638 21.34082031 75.77929688 C20.85484375 76.86210938 20.36886719 77.94492188 19.86816406 79.06054688 C14.49142608 89.94113248 7.25314874 98.24187844 -2.84667969 104.90429688 C-3.41652588 105.28295898 -3.98637207 105.66162109 -4.57348633 106.05175781 C-8.55743921 108.52023273 -12.01537467 109.38985452 -16.65917969 109.77929688 C-17.04589844 108.7403125 -17.43261719 107.70132813 -17.83105469 106.63085938 C-21.22330325 97.51631303 -21.22330325 97.51631303 -24.78417969 88.46679688 C-26.20333645 84.93387498 -27.61145051 81.3978909 -28.97167969 77.84179688 C-29.3184375 76.94589844 -29.66519531 76.05 -30.02246094 75.12695312 C-30.65917969 72.77929688 -30.65917969 72.77929688 -29.65917969 69.77929688 C-28.73105469 69.32554688 -27.80292969 68.87179688 -26.84667969 68.40429688 C-21.70025191 65.78062781 -19.49703498 62.12080823 -17.65917969 56.77929688 C-16.71270334 50.11411083 -17.24255537 44.94183276 -21.22558594 39.43554688 C-24.83161737 35.26945062 -28.03203109 32.99325691 -33.58496094 32.54101562 C-42.39132606 32.23749803 -42.39132606 32.23749803 -49.65917969 36.77929688 C-54.88737684 42.26532293 -56.04282225 46.4729581 -55.92480469 53.92773438 C-55.52182641 58.25382466 -54.44655017 61.42128362 -51.65917969 64.77929688 C-48.80954405 67.06979574 -45.84102332 68.98441073 -42.65917969 70.77929688 C-45.77030795 81.43255428 -49.14733045 91.87417206 -53.51074219 102.08789062 C-54.59873055 104.63763206 -55.63934971 107.20165321 -56.65917969 109.77929688 C-66.50773896 109.56044 -74.6382516 102.37073049 -81.59277344 95.95117188 C-85.13425667 92.22893241 -87.91347444 88.10629833 -90.65917969 83.77929688 C-91.38105469 82.72742188 -92.10292969 81.67554687 -92.84667969 80.59179688 C-100.11499693 66.93617054 -101.43994709 48.16970269 -97.16772461 33.40698242 C-90.65449022 14.10321144 -77.08553903 1.26346242 -59.28417969 -7.74023438 C-40.23932593 -15.51825116 -16.4662759 -12.11468209 0 0 Z M-79.65917969 10.77929688 C-80.22378906 11.32070313 -80.78839844 11.86210938 -81.37011719 12.41992188 C-90.79354801 22.2920875 -95.72875786 36.90510057 -95.97167969 50.27929688 C-95.49354548 67.86401054 -89.25550985 83.07395097 -76.76074219 95.69726562 C-71.88885526 100.21290786 -65.56375051 105.77929688 -58.65917969 105.77929688 C-57.10800204 101.72360176 -55.55983101 97.66677563 -54.0144043 93.60888672 C-53.48853183 92.229342 -52.96184711 90.85010661 -52.43432617 89.47119141 C-51.67509298 87.48616514 -50.91881267 85.50003531 -50.16308594 83.51367188 C-49.4796814 81.72268066 -49.4796814 81.72268066 -48.7824707 79.89550781 C-47.92538064 77.5177861 -47.19513816 75.24310596 -46.65917969 72.77929688 C-47.201875 72.40417969 -47.74457031 72.0290625 -48.30371094 71.64257812 C-53.72819893 67.76235878 -57.30529465 64.51400706 -58.65917969 57.77929688 C-59.29056128 50.45527045 -59.88327245 43.5627344 -55.29199219 37.46289062 C-49.82186081 31.82263554 -44.93315869 28.66048202 -36.97167969 28.46679688 C-30.30096826 28.54726384 -25.75621482 29.79978317 -20.90917969 34.46289062 C-15.08437725 40.97378758 -14.26906561 45.6037986 -14.40527344 54.35742188 C-14.8809239 60.76772652 -17.2976897 65.03296954 -21.65917969 69.77929688 C-23.30917969 71.09929687 -24.95917969 72.41929688 -26.65917969 73.77929688 C-22.69917969 84.33929688 -18.73917969 94.89929688 -14.65917969 105.77929688 C-2.91529619 103.43052018 5.56242562 94.83753186 12.40332031 85.46679688 C21.51665107 71.2016807 24.67222729 55.56317847 21.63769531 38.92382812 C18.40682688 26.36998767 12.45350205 16.89197861 3.34082031 7.77929688 C2.76460938 7.20308594 2.18839844 6.626875 1.59472656 6.03320312 C-9.61748605 -4.31859988 -25.01989254 -9.11525523 -40.11621094 -8.60351562 C-56.18277362 -6.86754744 -68.34157786 -0.49831343 -79.65917969 10.77929688 Z " fill="#F7FAF2" transform="translate(136.6591796875,41.220703125)"/>
<path d="M0 0 C1.98 0 3.96 0 6 0 C6.66 2.31 7.32 4.62 8 7 C6.7625 7.144375 5.525 7.28875 4.25 7.4375 C1.42648797 7.78608173 -1.24537518 8.28583801 -4 9 C-4.99 9 -5.98 9 -7 9 C-7.99 9.33 -8.98 9.66 -10 10 C-9.67 10.99 -9.34 11.98 -9 13 C-10.32 12.67 -11.64 12.34 -13 12 C-12.67 9.03 -12.34 6.06 -12 3 C-11.67 3 -11.34 3 -11 3 C-10.67 4.65 -10.34 6.3 -10 8 C-8.98888907 4.95086772 -8.98888907 4.95086772 -10 2 C-9.4225 2.20625 -8.845 2.4125 -8.25 2.625 C-5.48032433 3.08661261 -4.35438733 2.42944945 -2 1 C-1.67 2.32 -1.34 3.64 -1 5 C-1.99 5 -2.98 5 -4 5 C-4 5.66 -4 6.32 -4 7 C-2.35 6.67 -0.7 6.34 1 6 C0.67 4.02 0.34 2.04 0 0 Z " fill="#FDE496" transform="translate(118,179)"/>
<path d="M0 0 C4.70588235 0.70588235 4.70588235 0.70588235 6 2 C6.33 1.34 6.66 0.68 7 0 C8.65 0 10.3 0 12 0 C12.33 1.98 12.66 3.96 13 6 C12.113125 6.268125 11.22625 6.53625 10.3125 6.8125 C7.23122452 7.91710819 4.73778595 9.22849144 2 11 C0.11772118 7.73738338 -0.58481145 4.73669693 -1 1 C-0.67 0.67 -0.34 0.34 0 0 Z " fill="#FCF0C8" transform="translate(129,173)"/>
<path d="M0 0 C1.9375 0.875 1.9375 0.875 3.9375 3.875 C3.38194444 9.43055556 3.38194444 9.43055556 1.9375 10.875 C-0.5 11.0625 -0.5 11.0625 -3.0625 10.875 C-5.0625 8.875 -5.0625 8.875 -5.375 5.9375 C-5.0625 2.875 -5.0625 2.875 -3.8125 0.9375 C-2.0625 -0.125 -2.0625 -0.125 0 0 Z " fill="#FDEDBB" transform="translate(100.0625,178.125)"/>
<path d="M0 0 C0.66 0 1.32 0 2 0 C2 3.3 2 6.6 2 10 C2.66 10 3.32 10 4 10 C4.33 8.02 4.66 6.04 5 4 C6.65 4.33 8.3 4.66 10 5 C9.67 7.31 9.34 9.62 9 12 C1.25 11.25 1.25 11.25 -1 9 C-0.67 8.01 -0.34 7.02 0 6 C-0.99 6.66 -1.98 7.32 -3 8 C-3.99 8 -4.98 8 -6 8 C-4.68 6.68 -3.36 5.36 -2 4 C-1.34 4.33 -0.68 4.66 0 5 C0 3.35 0 1.7 0 0 Z " fill="#FDECB9" transform="translate(73,175)"/>
<path d="M0 0 C0.66 0.66 1.32 1.32 2 2 C1.34 3.65 0.68 5.3 0 7 C0.66 7 1.32 7 2 7 C2.33 5.35 2.66 3.7 3 2 C5.475 2.99 5.475 2.99 8 4 C8.33 6.64 8.66 9.28 9 12 C4.94718288 10.77472971 1.55639236 9.30119506 -2 7 C-1.34 4.69 -0.68 2.38 0 0 Z " fill="#FDE8A6" transform="translate(54,169)"/>
<path d="M0 0 C2.125 0.375 2.125 0.375 4 1 C3.67 1.99 3.34 2.98 3 4 C3 3.34 3 2.68 3 2 C2.01 2 1.02 2 0 2 C0.680625 2.556875 1.36125 3.11375 2.0625 3.6875 C3.0215625 4.8321875 3.0215625 4.8321875 4 6 C3.75 8.75 3.75 8.75 3 11 C1.02 11 -0.96 11 -3 11 C-3 9.68 -3 8.36 -3 7 C-2.34 7 -1.68 7 -1 7 C-1.309375 5.824375 -1.309375 5.824375 -1.625 4.625 C-1.74875 3.75875 -1.8725 2.8925 -2 2 C-1.34 1.34 -0.68 0.68 0 0 Z " fill="#FDDA6D" transform="translate(118,158)"/>
<path d="M0 0 C0.99 0 1.98 0 3 0 C2.67 3.63 2.34 7.26 2 11 C0.35 11 -1.3 11 -3 11 C-4.125 6.25 -4.125 6.25 -3 4 C-1.68 4 -0.36 4 1 4 C0.67 2.68 0.34 1.36 0 0 Z " fill="#FDE7A2" transform="translate(88,177)"/>
<path d="M0 0 C2.0625 0.4375 2.0625 0.4375 4 1 C4.33 2.65 4.66 4.3 5 6 C3.02 6.99 3.02 6.99 1 8 C-0.5625 6.75 -0.5625 6.75 -2 5 C-1.74853421 2.86254078 -1.54074221 1.54074221 0 0 Z " fill="#FDE391" transform="translate(159,157)"/>
<path d="M0 0 C1.9375 0.75 1.9375 0.75 4 2 C4.75 4.125 4.75 4.125 5 6 C4.34 6 3.68 6 3 6 C3 6.66 3 7.32 3 8 C0.37812506 6.95125002 -0.79371361 6.35068687 -2.25 3.875 C-2.4975 3.25625 -2.745 2.6375 -3 2 C-2.01 1.34 -1.02 0.68 0 0 Z " fill="#FDE7A1" transform="translate(144,169)"/>
<path d="M0 0 C2.09782787 2.09782787 2.6509396 3.3799207 3.625 6.125 C3.88539062 6.84945312 4.14578125 7.57390625 4.4140625 8.3203125 C4.70410156 9.15175781 4.70410156 9.15175781 5 10 C3.68 9.67 2.36 9.34 1 9 C1.33 8.01 1.66 7.02 2 6 C0.68 6 -0.64 6 -2 6 C-1.67 7.32 -1.34 8.64 -1 10 C-2.32 9.67 -3.64 9.34 -5 9 C-3.35 6.03 -1.7 3.06 0 0 Z " fill="#FCF2CF" transform="translate(93,159)"/>
<path d="M0 0 C2.0625 0.4375 2.0625 0.4375 4 1 C4 2.98 4 4.96 4 7 C2.0625 7.5625 2.0625 7.5625 0 8 C-1 7 -1 7 -1.125 4 C-1 1 -1 1 0 0 Z " fill="#FECF3D" transform="translate(98,180)"/>
<path d="M0 0 C1.32 0.66 2.64 1.32 4 2 C3.125 6.75 3.125 6.75 2 9 C1.34 9 0.68 9 0 9 C0 8.01 0 7.02 0 6 C-1.32 6 -2.64 6 -4 6 C-3.34 5.67 -2.68 5.34 -2 5 C-1.27840576 3.35636866 -0.60648579 1.68949614 0 0 Z " fill="#FCEAAF" transform="translate(48,165)"/>
<path d="M0 0 C1.32 0.33 2.64 0.66 4 1 C3.67 3.31 3.34 5.62 3 8 C1.35 8 -0.3 8 -2 8 C-1.34 5.36 -0.68 2.72 0 0 Z " fill="#FDE18A" transform="translate(79,179)"/>
<path d="M0 0 C0.99 0.33 1.98 0.66 3 1 C3 2.98 3 4.96 3 7 C2.01 7.33 1.02 7.66 0 8 C0.33 8.99 0.66 9.98 1 11 C-0.32 10.67 -1.64 10.34 -3 10 C-2.67 7.03 -2.34 4.06 -2 1 C-1.67 1 -1.34 1 -1 1 C-0.67 2.65 -0.34 4.3 0 6 C1.01111093 2.95086772 1.01111093 2.95086772 0 0 Z " fill="#FDF1CC" transform="translate(108,181)"/>
<path d="M0 0 C0.99 0.33 1.98 0.66 3 1 C3 1.99 3 2.98 3 4 C2.01 4 1.02 4 0 4 C0.66 5.32 1.32 6.64 2 8 C0.35 7.67 -1.3 7.34 -3 7 C-2.25 2.25 -2.25 2.25 0 0 Z " fill="#FDE9AC" transform="translate(114,180)"/>
<path d="M0 0 C0.66 0.33 1.32 0.66 2 1 C0.68 2.65 -0.64 4.3 -2 6 C-5.16115776 4.63016497 -5.9927092 4.0109362 -8 1 C-6.865625 1.020625 -5.73125 1.04125 -4.5625 1.0625 C-1.18424326 1.41577477 -1.18424326 1.41577477 0 0 Z " fill="#FCE9AB" transform="translate(45,163)"/>
<path d="M0 0 C2.0625 0.4375 2.0625 0.4375 4 1 C3.67 1.99 3.34 2.98 3 4 C3 3.34 3 2.68 3 2 C2.01 2 1.02 2 0 2 C0.680625 2.5775 1.36125 3.155 2.0625 3.75 C2.701875 4.4925 3.34125 5.235 4 6 C3.75 8.25 3.75 8.25 3 10 C3 9.01 3 8.02 3 7 C0.525 6.01 0.525 6.01 -2 5 C-1.125 1.125 -1.125 1.125 0 0 Z " fill="#FCF0C6" transform="translate(118,158)"/>
<path d="M0 0 C2.375 -0.125 2.375 -0.125 5 0 C5.66 0.66 6.32 1.32 7 2 C6.625 4.625 6.625 4.625 6 7 C1.125 3.375 1.125 3.375 0 0 Z " fill="#FDD65C" transform="translate(103,181)"/>
<path d="M0 0 C1.98 0.495 1.98 0.495 4 1 C4 2.32 4 3.64 4 5 C2.68 5.33 1.36 5.66 0 6 C-1.125 2.25 -1.125 2.25 0 0 Z " fill="#FEDC75" transform="translate(130,178)"/>
<path d="M0 0 C1.32 0 2.64 0 4 0 C4 0.66 4 1.32 4 2 C3.34 2 2.68 2 2 2 C2.33 2.99 2.66 3.98 3 5 C3.99 4.34 4.98 3.68 6 3 C5.67 4.32 5.34 5.64 5 7 C3.35 6.67 1.7 6.34 0 6 C0 4.02 0 2.04 0 0 Z " fill="#FCECB9" transform="translate(153,162)"/>
<path d="M0 0 C0.99 0.33 1.98 0.66 3 1 C1.515 3.475 1.515 3.475 0 6 C-1.32 5.67 -2.64 5.34 -4 5 C-2.68 3.35 -1.36 1.7 0 0 Z " fill="#FED352" transform="translate(46,164)"/>
<path d="M0 0 C2.475 0.495 2.475 0.495 5 1 C4.67 1.99 4.34 2.98 4 4 C2.68 3.67 1.36 3.34 0 3 C0 2.01 0 1.02 0 0 Z " fill="#FDDC74" transform="translate(129,173)"/>
<path d="M0 0 C0.99 0 1.98 0 3 0 C3.33 1.65 3.66 3.3 4 5 C2.68 4.67 1.36 4.34 0 4 C0 2.68 0 1.36 0 0 Z " fill="#FED149" transform="translate(137,174)"/>
<path d="M0 0 C0.99 0.33 1.98 0.66 3 1 C3 1.66 3 2.32 3 3 C2.01 3 1.02 3 0 3 C0.33 4.32 0.66 5.64 1 7 C-0.32 6.67 -1.64 6.34 -3 6 C-2.01 4.02 -1.02 2.04 0 0 Z " fill="#FCE496" transform="translate(91,162)"/>
</svg>
